<svg width="511.9" height="511.9" xmlns="http://www.w3.org/2000/svg">

 <g>
  <title>background</title>
  <rect fill="none" id="canvas_background" height="402" width="582" y="-1" x="-1"/>
 </g>
 <g>
  <title>Layer 1</title>
  <path id="svg_1" d="m255.9,35.3c-121.9,0 -220.7,98.8 -220.7,220.7c0,3.3 0.1,6.6 0.2,9.9c-12.8,1.7 -22.8,12.6 -22.8,25.9c0,14.5 11.7,26.2 26.2,26.2l5.2,0c26.8,91.7 111.4,158.7 211.7,158.7c121.8,0 220.6,-98.8 220.6,-220.6c0.2,-122 -98.6,-220.8 -220.4,-220.8z" fill="#eeeeee"/>
  <path id="svg_2" d="m476.2,265.8c0.1,-3.3 0.2,-6.6 0.2,-9.9c0,-58.9 -23.1,-112.5 -60.8,-152c21.3,34.5 33.6,75.2 33.6,118.8c0,125.2 -101.5,226.7 -226.7,226.7c-43.6,0 -84.2,-12.3 -118.8,-33.6c39.6,37.7 93.1,60.8 152,60.8c100.3,0 185,-67 211.7,-158.7l5.2,0c14.5,0 26.2,-11.7 26.2,-26.2c0.2,-13.3 -9.7,-24.2 -22.6,-25.9z" fill="#7f7f7f"/>
  <path id="svg_3" d="m307,324.1l-102.1,0c-10.6,6.4 -17.2,14.7 -17.2,23.9c0,13.5 14,25.2 34.5,31.5c10,3.1 21.4,5 33.8,5c12.3,0 23.8,-1.9 33.8,-5c20.5,-6.3 34.5,-18 34.5,-31.5c-0.1,-9.2 -6.7,-17.6 -17.3,-23.9z" fill="#000000"/>
  <path id="svg_4" d="m381.5,184.8c-15.4,0 -30.5,-7 -42.4,-20.4c-2.8,-3.2 -2.5,-8 0.7,-10.9c3.2,-2.8 8,-2.5 10.9,0.7c13.2,14.9 31.7,19.2 48,11c3.8,-1.9 8.4,-0.3 10.3,3.5c1.9,3.8 0.3,8.4 -3.5,10.3c-7.8,3.9 -15.9,5.8 -24,5.8z" fill="#616161"/>
  <path id="svg_5" d="m135.6,184.8c-8,0 -16.2,-1.9 -24,-5.8c-3.8,-1.9 -5.4,-6.5 -3.5,-10.3c1.9,-3.8 6.5,-5.4 10.3,-3.5c16.4,8.1 34.8,3.9 48,-11c2.8,-3.2 7.7,-3.5 10.9,-0.7c3.2,2.8 3.5,7.7 0.7,10.9c-11.9,13.4 -26.9,20.4 -42.4,20.4z" fill="#616161"/>
  <path id="svg_6" d="m365.7,188.3c13.4,0 24.2,10.8 24.2,24.2l0,54.3c0,13.4 -10.8,4.2 -24.2,4.2l0,0c-13.4,0 -24.2,9.2 -24.2,-4.2l0,-54.3c0,-13.3 10.9,-24.2 24.2,-24.2l0,0z" fill="#000000"/>
  <path id="svg_7" d="m343.7,281.3c-2.8,0 -5.6,-1.6 -6.9,-4.3c-1.9,-3.8 -0.3,-8.4 3.5,-10.3c16.2,-8 34.7,-8.3 50.8,-0.7c3.8,1.8 5.5,6.4 3.6,10.2c-1.8,3.8 -6.4,5.5 -10.2,3.6c-11.8,-5.6 -25.4,-5.4 -37.3,0.5c-1.2,0.8 -2.3,1 -3.5,1z" fill="#616161"/>
  <path id="svg_8" d="m146.1,189.3c13.4,0 24.2,10.8 24.2,24.2l0,54.3c0,13.4 -10.8,4.2 -24.2,4.2l0,0c-13.4,0 -24.2,9.2 -24.2,-4.2l0,-54.3c0,-13.3 10.8,-24.2 24.2,-24.2l0,0z" fill="#000000"/>
  <path id="svg_9" d="m124.1,281.3c-2.8,0 -5.6,-1.6 -6.9,-4.3c-1.9,-3.8 -0.3,-8.4 3.5,-10.3c16.2,-8.1 34.7,-8.3 50.8,-0.7c3.8,1.8 5.5,6.4 3.6,10.2c-1.8,3.8 -6.4,5.5 -10.3,3.6c-11.8,-5.6 -25.4,-5.4 -37.3,0.5c-1.1,0.8 -2.3,1 -3.4,1z" fill="#616161"/>
  <path id="svg_10" d="m67.1,124.8l21.5,54.1c5.2,17.1 -4.5,35.1 -21.5,40.3c-17.1,5.2 -35.1,-4.5 -40.3,-21.5c-1.9,-6.4 -1.8,-12.8 0,-18.7l21.5,-54.1c1.6,-5.2 7.1,-8.1 12.3,-6.5c3.2,0.8 5.6,3.4 6.5,6.4z" fill="#4fc3f7"/>
  <path id="svg_11" d="m306.7,324.1c-12.3,-7.3 -30.4,-11.8 -50.8,-11.8s-38.5,4.6 -50.8,11.8l101.6,0z" fill="#eeeeee"/>
 </g>
</svg>